<svg width="23" height="30" viewBox="0 0 23 30" fill="none" xmlns="http://www.w3.org/2000/svg">
<path d="M21.8268 0.911072H5.23968C4.75016 0.911072 4.33293 1.26617 4.25468 1.74939L2.5822 12.0769C2.48393 12.6838 2.95246 13.2343 3.5672 13.2343H10.9968C11.4985 13.2343 11.9222 12.8617 11.9864 12.3641L12.5602 7.91787C12.6244 7.42027 13.0481 7.04773 13.5498 7.04773H21.1535C21.6427 7.04773 22.0598 6.69298 22.1384 6.21005L22.8117 2.06905C22.9104 1.46202 22.4418 0.911072 21.8268 0.911072Z" fill="url(#paint0_linear_3_791)"/>
<path d="M1.41178 20.3602L0.185691 27.9936C0.0882821 28.6 0.556671 29.1497 1.17089 29.1497H8.54157C9.04782 29.1497 9.47384 28.7706 9.53265 28.2678L10.3816 21.0095C10.411 20.7581 10.5348 20.5272 10.7281 20.3637L11.4455 19.7567C11.6256 19.6043 11.854 19.5206 12.09 19.5206H19.1451C19.6399 19.5206 20.06 19.158 20.1322 18.6684L20.7358 14.5773C20.8247 13.9748 20.3578 13.4338 19.7487 13.4338H12.5763C12.0857 13.4338 11.6678 13.7905 11.5909 14.2751L10.9398 18.3731C10.8991 18.6291 10.7604 18.8592 10.553 19.0147L10.1446 19.321C9.97189 19.4506 9.76182 19.5206 9.54592 19.5206H2.39699C1.90698 19.5206 1.48949 19.8764 1.41178 20.3602Z" fill="url(#paint1_linear_3_791)"/>
<defs>
<linearGradient id="paint0_linear_3_791" x1="12.6974" y1="0.911072" x2="12.6974" y2="13.2343" gradientUnits="userSpaceOnUse">
<stop stop-color="#525FFD"/>
<stop offset="1" stop-color="#CD89FF"/>
</linearGradient>
<linearGradient id="paint1_linear_3_791" x1="10.4523" y1="13.4338" x2="10.4523" y2="29.1497" gradientUnits="userSpaceOnUse">
<stop stop-color="#CD89FF"/>
<stop offset="1" stop-color="#B5FFAB"/>
</linearGradient>
</defs>
</svg>
