<svg width="215" height="56" viewBox="0 0 215 56" fill="none" xmlns="http://www.w3.org/2000/svg">
<path d="M62.3956 13.2681C63.1761 13.2681 63.8615 13.3537 64.4516 13.5251C65.0418 13.6774 65.4797 13.8582 65.7652 14.0677L65.2798 17.0946C65.0704 16.9614 64.8324 16.8567 64.5659 16.7805C64.2993 16.7044 63.9662 16.6663 63.5664 16.6663C62.9001 16.6663 62.348 16.8186 61.9101 17.1232C61.4913 17.4278 61.2819 17.9608 61.2819 18.7223V20.5785L61.5674 21.3781V34H56.7129V18.4082C56.7129 17.4944 56.8556 16.7139 57.1412 16.0666C57.4458 15.4193 57.8646 14.8863 58.3977 14.4674C58.9307 14.0486 59.5399 13.744 60.2253 13.5536C60.9106 13.3633 61.6341 13.2681 62.3956 13.2681ZM65.6224 19.7218V23.1771H54.4283V19.7218H65.6224ZM72.3903 13.6679V29.1454C72.3903 29.7737 72.495 30.221 72.7044 30.4876C72.9138 30.7541 73.266 30.8874 73.761 30.8874C74.0466 30.8874 74.2845 30.8683 74.4749 30.8302C74.6653 30.7922 74.8937 30.7351 75.1603 30.6589L74.8462 33.5717C74.5035 33.7811 74.0561 33.9524 73.504 34.0857C72.9519 34.2189 72.4093 34.2856 71.8763 34.2856C70.3533 34.2856 69.2491 33.9334 68.5638 33.229C67.8784 32.5246 67.5357 31.3728 67.5357 29.7737V13.6679H72.3903ZM81.7621 34.2856C80.7912 34.2856 79.9345 34.1237 79.1921 33.8001C78.4686 33.4574 77.8975 32.9149 77.4787 32.1724C77.0599 31.4299 76.8505 30.459 76.8505 29.2596V19.7218H81.705V28.1174C81.705 29.0312 81.8859 29.669 82.2476 30.0307C82.6093 30.3924 83.1233 30.5732 83.7896 30.5732C84.1323 30.5732 84.456 30.5161 84.7606 30.4019C85.0652 30.2686 85.3317 30.0783 85.5601 29.8308C85.7886 29.5642 85.9599 29.2311 86.0742 28.8313C86.2074 28.4125 86.2741 27.927 86.2741 27.3749V19.7218H91.1286V34H86.7881L86.6453 31.3157C86.1884 32.3247 85.5506 33.0767 84.732 33.5717C83.9134 34.0476 82.9234 34.2856 81.7621 34.2856ZM101.584 34.2856C100.004 34.2856 98.6335 33.9905 97.4722 33.4003C96.3299 32.8102 95.4447 31.963 94.8164 30.8588C94.1882 29.7546 93.8741 28.422 93.8741 26.8609C93.8741 25.2998 94.1882 23.9672 94.8164 22.863C95.4447 21.7588 96.3204 20.9117 97.4436 20.3215C98.5859 19.7313 99.8899 19.4362 101.356 19.4362C102.86 19.4362 104.135 19.7313 105.182 20.3215C106.248 20.8926 107.058 21.6922 107.61 22.7202C108.162 23.7292 108.438 24.8905 108.438 26.2041C108.438 26.5468 108.428 26.8895 108.409 27.2321C108.39 27.5748 108.362 27.8604 108.324 28.0888H97.0153V25.4902H106.182L103.869 26.3754C103.869 25.2332 103.659 24.3575 103.241 23.7483C102.841 23.1391 102.213 22.8345 101.356 22.8345C100.747 22.8345 100.223 22.9772 99.7852 23.2628C99.3664 23.5484 99.0428 23.9958 98.8143 24.605C98.6049 25.2142 98.5002 25.9947 98.5002 26.9466C98.5002 27.8794 98.6239 28.6409 98.8714 29.2311C99.1189 29.8022 99.4711 30.221 99.928 30.4876C100.385 30.7351 100.937 30.8588 101.584 30.8588C102.308 30.8588 102.879 30.716 103.298 30.4305C103.736 30.1449 104.059 29.7451 104.269 29.2311L108.152 30.5161C107.886 31.3347 107.419 32.0296 106.753 32.6007C106.106 33.1528 105.325 33.5717 104.411 33.8572C103.517 34.1428 102.574 34.2856 101.584 34.2856ZM111.154 34V19.7218H115.494L115.751 24.6335L115.209 24.0909C115.399 23.0629 115.732 22.2062 116.208 21.5209C116.703 20.8355 117.312 20.3215 118.036 19.9788C118.778 19.6171 119.606 19.4362 120.52 19.4362C121.51 19.4362 122.367 19.6266 123.09 20.0074C123.833 20.3881 124.413 20.9497 124.832 21.6922C125.251 22.4347 125.46 23.3675 125.46 24.4907V34H120.606V25.7758C120.606 24.7858 120.415 24.1005 120.035 23.7197C119.654 23.339 119.168 23.1486 118.578 23.1486C118.121 23.1486 117.693 23.2628 117.293 23.4913C116.893 23.7007 116.579 24.0433 116.351 24.5193C116.122 24.9952 116.008 25.633 116.008 26.4326V34H111.154ZM135.63 19.4362C137.077 19.4362 138.276 19.6457 139.228 20.0645C140.199 20.4643 140.951 21.0069 141.484 21.6922C142.036 22.3585 142.379 23.0819 142.512 23.8625L138.028 25.3474C137.895 24.5288 137.648 23.9196 137.286 23.5198C136.943 23.101 136.439 22.8916 135.773 22.8916C135.163 22.8916 134.649 23.0344 134.23 23.3199C133.831 23.5864 133.526 24.0243 133.317 24.6335C133.107 25.2237 133.003 25.9852 133.003 26.918C133.003 27.8509 133.117 28.6124 133.345 29.2025C133.574 29.7737 133.897 30.1925 134.316 30.459C134.735 30.7065 135.23 30.8302 135.801 30.8302C136.277 30.8302 136.667 30.7446 136.972 30.5732C137.296 30.3829 137.562 30.1163 137.771 29.7737C137.981 29.431 138.114 29.0122 138.171 28.5172L142.54 29.9164C142.407 30.7541 142.045 31.5061 141.455 32.1724C140.884 32.8197 140.123 33.3337 139.171 33.7144C138.219 34.0952 137.105 34.2856 135.83 34.2856C134.269 34.2856 132.907 34 131.746 33.4289C130.585 32.8387 129.69 31.9915 129.062 30.8874C128.434 29.7641 128.119 28.422 128.119 26.8609C128.119 25.2998 128.434 23.9672 129.062 22.863C129.69 21.7398 130.566 20.8926 131.689 20.3215C132.831 19.7313 134.145 19.4362 135.63 19.4362ZM152.032 34.2856C150.452 34.2856 149.081 33.9905 147.92 33.4003C146.778 32.8102 145.892 31.963 145.264 30.8588C144.636 29.7546 144.322 28.422 144.322 26.8609C144.322 25.2998 144.636 23.9672 145.264 22.863C145.892 21.7588 146.768 20.9117 147.891 20.3215C149.034 19.7313 150.338 19.4362 151.804 19.4362C153.308 19.4362 154.583 19.7313 155.63 20.3215C156.696 20.8926 157.505 21.6922 158.057 22.7202C158.609 23.7292 158.886 24.8905 158.886 26.2041C158.886 26.5468 158.876 26.8895 158.857 27.2321C158.838 27.5748 158.809 27.8604 158.771 28.0888H147.463V25.4902H156.63L154.317 26.3754C154.317 25.2332 154.107 24.3575 153.688 23.7483C153.288 23.1391 152.66 22.8345 151.804 22.8345C151.194 22.8345 150.671 22.9772 150.233 23.2628C149.814 23.5484 149.49 23.9958 149.262 24.605C149.053 25.2142 148.948 25.9947 148.948 26.9466C148.948 27.8794 149.072 28.6409 149.319 29.2311C149.567 29.8022 149.919 30.221 150.376 30.4876C150.833 30.7351 151.385 30.8588 152.032 30.8588C152.755 30.8588 153.327 30.716 153.745 30.4305C154.183 30.1449 154.507 29.7451 154.716 29.2311L158.6 30.5161C158.333 31.3347 157.867 32.0296 157.201 32.6007C156.553 33.1528 155.773 33.5717 154.859 33.8572C153.964 34.1428 153.022 34.2856 152.032 34.2856ZM175.423 15.8953L175.822 19.1507C175.708 19.1126 175.594 19.0936 175.48 19.0936C175.365 19.0745 175.251 19.065 175.137 19.065C174.299 19.065 173.671 19.2744 173.252 19.6933C172.853 20.093 172.653 20.5975 172.653 21.2067L170.939 20.5785C170.939 19.798 171.082 19.046 171.368 18.3226C171.653 17.5991 172.091 17.009 172.681 16.5521C173.29 16.0952 174.052 15.8667 174.966 15.8667C175.023 15.8667 175.089 15.8667 175.166 15.8667C175.261 15.8667 175.346 15.8762 175.423 15.8953ZM170.511 30.8302C172.167 30.8302 173.433 31.1824 174.309 31.8868C175.204 32.5722 175.651 33.5621 175.651 34.8567C175.651 36.037 175.327 37.0175 174.68 37.798C174.033 38.5785 173.119 39.1592 171.939 39.5399C170.777 39.9397 169.397 40.1396 167.798 40.1396C165.209 40.1396 163.343 39.816 162.201 39.1687C161.059 38.5214 160.488 37.6457 160.488 36.5415C160.488 35.7419 160.811 35.0947 161.459 34.5997C162.106 34.1047 163.181 33.8382 164.685 33.8001L164.571 34.257C163.41 34.1047 162.544 33.762 161.973 33.229C161.401 32.6959 161.116 31.9725 161.116 31.0587C161.116 30.1449 161.478 29.4024 162.201 28.8313C162.924 28.2602 163.886 27.946 165.085 27.8889L166.856 28.7171H166.399C165.656 28.7551 165.133 28.8789 164.828 29.0883C164.524 29.2977 164.371 29.5547 164.371 29.8593C164.371 30.183 164.505 30.4305 164.771 30.6018C165.038 30.7541 165.437 30.8302 165.97 30.8302H170.511ZM167.827 36.9984C168.74 36.9984 169.492 36.9318 170.083 36.7985C170.692 36.6843 171.149 36.513 171.453 36.2845C171.758 36.0751 171.91 35.8276 171.91 35.542C171.91 35.2565 171.805 35.028 171.596 34.8567C171.387 34.7044 171.006 34.6282 170.454 34.6282H165.342C164.98 34.6282 164.685 34.7234 164.457 34.9138C164.248 35.1042 164.143 35.3421 164.143 35.6277C164.143 36.0656 164.466 36.3987 165.114 36.6272C165.761 36.8747 166.665 36.9984 167.827 36.9984ZM167.998 19.4362C169.445 19.4362 170.682 19.6266 171.71 20.0074C172.738 20.3881 173.519 20.9402 174.052 21.6636C174.604 22.368 174.88 23.2438 174.88 24.2908C174.88 25.3189 174.604 26.1946 174.052 26.918C173.519 27.6414 172.738 28.1935 171.71 28.5743C170.682 28.936 169.445 29.1169 167.998 29.1169C165.732 29.1169 164.01 28.698 162.829 27.8604C161.668 27.0227 161.087 25.8329 161.087 24.2908C161.087 23.2438 161.354 22.368 161.887 21.6636C162.439 20.9402 163.229 20.3881 164.257 20.0074C165.285 19.6266 166.532 19.4362 167.998 19.4362ZM167.998 22.2062C167.37 22.2062 166.856 22.3871 166.456 22.7488C166.075 23.1105 165.885 23.6245 165.885 24.2908C165.885 24.9381 166.075 25.4426 166.456 25.8043C166.856 26.166 167.37 26.3469 167.998 26.3469C168.607 26.3469 169.112 26.166 169.511 25.8043C169.911 25.4426 170.111 24.9381 170.111 24.2908C170.111 23.6245 169.911 23.1105 169.511 22.7488C169.112 22.3871 168.607 22.2062 167.998 22.2062ZM177.581 34V19.7218H181.864L182.064 22.8059C182.426 21.7398 182.959 20.9117 183.663 20.3215C184.387 19.7313 185.3 19.4362 186.405 19.4362C186.766 19.4362 187.071 19.4648 187.318 19.5219C187.585 19.579 187.794 19.6552 187.947 19.7504L187.461 23.7483C187.271 23.6721 187.023 23.615 186.719 23.5769C186.433 23.5198 186.081 23.4913 185.662 23.4913C185.091 23.4913 184.558 23.615 184.063 23.8625C183.568 24.11 183.168 24.4812 182.864 24.9762C182.578 25.4521 182.435 26.0613 182.435 26.8038V34H177.581ZM192.278 18.0655C191.288 18.0655 190.565 17.8847 190.108 17.523C189.67 17.1422 189.451 16.5521 189.451 15.7525C189.451 14.9339 189.67 14.3437 190.108 13.982C190.565 13.6012 191.288 13.4109 192.278 13.4109C193.249 13.4109 193.963 13.6012 194.42 13.982C194.877 14.3437 195.105 14.9339 195.105 15.7525C195.105 16.5521 194.877 17.1422 194.42 17.523C193.963 17.8847 193.249 18.0655 192.278 18.0655ZM194.705 19.7218V34H189.851V19.7218H194.705ZM203.416 34.2856C202.235 34.2856 201.198 34 200.303 33.4289C199.427 32.8387 198.742 31.9915 198.247 30.8874C197.771 29.7832 197.533 28.4601 197.533 26.918C197.533 25.3189 197.78 23.9672 198.275 22.863C198.789 21.7588 199.494 20.9117 200.389 20.3215C201.302 19.7313 202.35 19.4362 203.53 19.4362C204.824 19.4362 205.862 19.836 206.642 20.6356C207.442 21.4162 207.956 22.4156 208.185 23.634L207.728 24.2337V13.6679H212.582V34H208.242L207.928 29.1454L208.499 29.5738C208.384 30.5256 208.089 31.3538 207.613 32.0582C207.157 32.7626 206.566 33.3146 205.843 33.7144C205.139 34.0952 204.329 34.2856 203.416 34.2856ZM205.1 30.716C205.653 30.716 206.119 30.5732 206.5 30.2877C206.899 29.9831 207.204 29.5357 207.414 28.9455C207.623 28.3554 207.728 27.6319 207.728 26.7752C207.728 25.9757 207.623 25.2998 207.414 24.7477C207.223 24.1766 206.928 23.7483 206.528 23.4627C206.148 23.1581 205.681 23.0058 205.129 23.0058C204.291 23.0058 203.625 23.3199 203.13 23.9482C202.654 24.5574 202.416 25.5283 202.416 26.8609C202.416 28.1935 202.654 29.174 203.13 29.8022C203.606 30.4114 204.263 30.716 205.1 30.716Z" fill="#0F1523"/>
<path d="M0 14.1C0 6.31278 6.31279 0 14.1 0H32.9C40.6872 0 47 6.31279 47 14.1V36.5C47 42.299 42.299 47 36.5 47H34.4759C32.4451 47 30.5329 47.9561 29.3145 49.5807C26.8416 52.8779 21.9534 53.0427 19.2641 49.9196L18.8377 49.4244C17.5123 47.8852 15.5818 47 13.5506 47H11.484C5.14156 47 0 41.8584 0 35.516V14.1Z" fill="#0F1523"/>
<path d="M34.8268 9.91107H18.2397C17.7502 9.91107 17.3329 10.2662 17.2547 10.7494L15.5822 21.0769C15.4839 21.6838 15.9525 22.2343 16.5672 22.2343H23.9968C24.4985 22.2343 24.9222 21.8617 24.9864 21.3641L25.5602 16.9179C25.6244 16.4203 26.0481 16.0477 26.5498 16.0477H34.1535C34.6427 16.0477 35.0598 15.693 35.1384 15.21L35.8117 11.069C35.9104 10.462 35.4418 9.91107 34.8268 9.91107Z" fill="url(#paint0_linear_3_787)"/>
<path d="M14.4118 29.3602L13.1857 36.9936C13.0883 37.6 13.5567 38.1497 14.1709 38.1497H21.5416C22.0478 38.1497 22.4738 37.7706 22.5326 37.2678L23.3816 30.0095C23.411 29.7581 23.5348 29.5272 23.7281 29.3637L24.4455 28.7567C24.6256 28.6043 24.854 28.5206 25.09 28.5206H32.1451C32.6399 28.5206 33.06 28.158 33.1322 27.6684L33.7358 23.5773C33.8247 22.9748 33.3578 22.4338 32.7487 22.4338H25.5763C25.0857 22.4338 24.6678 22.7905 24.5909 23.2751L23.9398 27.3731C23.8991 27.6291 23.7604 27.8592 23.553 28.0147L23.1446 28.321C22.9719 28.4506 22.7618 28.5206 22.5459 28.5206H15.397C14.907 28.5206 14.4895 28.8764 14.4118 29.3602Z" fill="url(#paint1_linear_3_787)"/>
<defs>
<linearGradient id="paint0_linear_3_787" x1="25.6974" y1="9.91107" x2="25.6974" y2="22.2343" gradientUnits="userSpaceOnUse">
<stop stop-color="#525FFD"/>
<stop offset="1" stop-color="#CD89FF"/>
</linearGradient>
<linearGradient id="paint1_linear_3_787" x1="23.4523" y1="22.4338" x2="23.4523" y2="38.1497" gradientUnits="userSpaceOnUse">
<stop stop-color="#CD89FF"/>
<stop offset="1" stop-color="#B5FFAB"/>
</linearGradient>
</defs>
</svg>
